<svg xmlns="http://www.w3.org/2000/svg" 
   viewBox="0 0 26.458333 26.458334"
   height="100"
   width="100">
  <g
     transform="translate(0,-270.54165)"
     id="layer1">
    <path
       id="path896"
       d="m 13.405422,273.85429 c -0.106939,7e-4 -0.214206,0.006 -0.32189,0.0156 -2.161546,0.034 -3.8842525,1.48625 -4.4677493,4.3876 -0.1001704,0.76093 -0.1171755,1.39761 -0.048224,1.80919 0.084276,0.50306 0.171978,1.40825 0.2037487,2.10098 0.059318,1.29351 -0.1730053,2.4862 -0.5510124,2.82806 -0.292225,0.2429 -1.1302104,0.22689 -1.4640065,0.59821 -0.886476,0.64091 -1.9284624,2.46744 -1.8500062,3.59952 0.063502,0.38407 0.218956,0.6732 0.4989129,0.92829 l 7.9299248,3.36102 c 5.290026,-2.54071 -1.63e-4,1.4e-4 8.055427,-3.81594 0.226228,-0.49102 0.221415,-0.8415 -0.02188,-1.5569 -0.392411,-1.15384 -0.972476,-2.02177 -1.681313,-2.51599 -0.509749,-0.35148 -1.098913,-0.33361 -1.54322,-0.69851 -0.254914,-0.32554 -0.385676,-0.81358 -0.455336,-1.69956 -0.05564,-0.70773 -0.0035,-1.7556 0.134219,-2.69655 0.225154,-1.53827 -0.0428,-3.34477 -0.672255,-4.53187 -0.645578,-1.17495 -2.141238,-2.12614 -3.745332,-2.11315 z m -2.027994,3.60094 c 1.494548,-0.0412 3.418186,2.00959 5.058076,2.38894 0.147053,-0.14108 0.248009,-0.25692 0.417957,-0.35584 0.08052,0 0.177443,0.23661 0.196775,0.48026 0.03044,0.38369 -0.137991,0.93662 -0.347263,1.14047 -0.04263,0.0415 -0.126458,0.0758 -0.186318,0.0762 -0.101021,7.1e-4 -0.119343,0.0278 -0.256041,0.3761 -0.267386,0.6814 -0.863999,1.54418 -1.343345,1.94252 -0.298521,0.24808 -0.627682,0.44521 -0.935656,0.56051 -0.401473,0.15032 -0.986891,0.1632 -1.397963,0.031 -0.942103,-0.30296 -1.876013,-1.31274 -2.388816,-2.58307 -0.116319,-0.28815 -0.132802,-0.30928 -0.2504249,-0.32058 -0.2721696,-0.0261 -0.4914836,-0.50473 -0.497945,-1.08656 -0.0051,-0.45637 0.052844,-0.59757 0.2444215,-0.59718 0.1151566,3.3e-4 0.1297906,-0.0127 0.1506807,-0.13476 0.1939567,-1.13399 0.7739537,-1.85843 1.5358617,-1.918 z m -0.398007,6.47237 0.220985,0.18562 c 0.121483,0.10205 0.345832,0.26356 0.498527,0.35907 1.142706,0.71479 2.324779,0.61908 3.477088,-0.28146 0.27624,-0.21589 0.34126,-0.25203 0.34126,-0.18968 0.01936,0.45583 0.643957,0.6284 0.769479,0.93398 -0.07901,0.25435 -0.390326,0.57003 -0.844432,0.85616 -0.53506,0.33715 -1.155366,0.5543 -1.804879,0.63184 v -2.1e-4 c -0.233583,0.0279 -0.510739,0.0413 -0.87058,0.001 -0.826715,-0.0948 -1.835688,-0.55994 -2.329357,-1.074 -0.160697,-0.16735 -0.334881,-0.45221 -0.29497,-0.48229 0.360122,-0.20233 0.60534,-0.32666 0.787491,-0.75221 z"
       style="fill:#CCC;stroke-width:0.03905922" />
  </g>
</svg>
