<svg xmlns="http://www.w3.org/2000/svg" 
  viewBox="0 0 26.458333 26.458334"
   height="100"
   width="100">
  <g
     transform="translate(0,-270.54165)"
     id="layer1">
    <path
       id="path1041"
       d="m 4.720003,289.44599 c -0.45994,-1.27492 -0.174406,-2.83778 1.366812,-4.43429 0.832365,-0.86224 1.98233,-1.46499 3.143604,-1.64771 0.39906,-0.0628 0.432093,-0.0503 0.49498,0.18667 0.121546,0.45806 2.89414,2.99486 3.273231,2.99486 0.387301,0 3.154049,-2.5263 3.277893,-2.99303 0.06344,-0.23909 0.09578,-0.2514 0.495468,-0.1885 1.659917,0.26119 3.256479,1.38543 3.999596,2.81639 0.425496,0.81934 1.253776,2.27265 0.575625,2.66515 l -8.012092,4.63723 z m 7.711051,-5.53637 c -1.013655,-0.2471 -2.223481,-1.25113 -2.9085,-2.41376 -1.360366,-2.30884 -1.440815,-4.52643 -0.220999,-6.09191 0.522053,-0.66999 0.989842,-1.02969 1.789312,-1.37589 1.247727,-0.54031 2.57995,-0.53727 3.840857,0.009 2.791516,1.20881 3.426932,4.27031 1.548132,7.45906 -0.485429,0.82388 -1.585396,1.89132 -2.248446,2.18196 -0.548472,0.24041 -1.344539,0.34291 -1.800356,0.2318 z m 1.691947,-0.90069 c 0.408175,-0.19292 0.826139,-0.50076 1.164854,-0.85795 0.564091,-0.59485 1.352745,-2.00837 1.556228,-2.78926 0.164355,-0.63072 0.07935,-1.4837 -0.181023,-1.81652 -0.853874,-0.77373 -2.284498,-0.30056 -3.501535,-0.33363 -1.660052,-0.1453 -2.069017,-0.20539 -2.988185,-1.19561 l -0.244547,0.28865 c -0.328765,0.38805 -0.631911,1.01239 -0.815799,1.68017 -0.134077,0.48689 -0.133402,0.6262 0.0058,1.19759 0.223629,0.91791 0.972891,2.31178 1.595757,2.96861 0.338715,0.35719 0.756678,0.66503 1.164854,0.85795 0.847539,0.4006 1.39605,0.4006 2.243591,0 z"
       style="fill:#CCC;stroke-width:0.10081892" />
  </g>
</svg>
